<?xml version="1.0" standalone="no"?>
<!DOCTYPE svg PUBLIC "-//W3C//DTD SVG 20010904//EN"
 "http://www.w3.org/TR/2001/REC-SVG-20010904/DTD/svg10.dtd">
<svg version="1.0" xmlns="http://www.w3.org/2000/svg"
 width="916.000000pt" height="272.000000pt" viewBox="0 0 916.000000 272.000000"
 preserveAspectRatio="xMidYMid meet">

<g transform="translate(0.000000,272.000000) scale(0.100000,-0.100000)"
fill="#000000" stroke="none">
<path d="M763 1902 l-43 -3 0 -535 0 -534 168 0 168 0 157 210 c87 116 162
210 167 210 5 0 56 -62 113 -137 57 -76 128 -170 158 -210 l54 -72 168 0 167
-1 0 538 0 537 -50 -3 -50 -4 0 -489 0 -489 -90 0 -90 0 -137 185 -138 185
-105 -3 -105 -2 -138 -182 -138 -183 -89 0 c-65 0 -90 3 -90 13 -1 6 -1 227 0
489 0 262 -3 478 -7 480 -5 2 -27 2 -50 0z"/>
<path d="M920 1473 l0 -433 45 0 45 0 0 345 c0 190 3 345 8 345 4 0 18 -16 32
-34 14 -19 72 -95 129 -170 l104 -136 97 0 97 0 79 103 c44 56 102 133 129
170 l50 69 3 -346 2 -346 50 0 50 0 0 433 0 432 -50 -3 c-57 -4 -35 20 -293
-325 -60 -81 -114 -146 -118 -145 -4 2 -88 109 -186 238 l-178 235 -48 0 -47
0 0 -432z"/>
<path d="M5328 1900 c-57 -10 -112 -52 -138 -105 -30 -62 -25 -156 9 -207 43
-62 85 -83 165 -83 87 1 132 26 172 98 22 42 26 58 22 112 -8 127 -106 206
-230 185z m112 -58 c105 -52 105 -222 0 -281 -102 -57 -230 20 -230 138 0 125
119 199 230 143z"/>
<path d="M2180 1701 l0 -201 40 0 39 0 3 128 3 127 53 -78 c29 -43 57 -75 62
-72 5 3 28 37 52 75 24 39 46 70 51 70 4 0 7 -56 7 -125 l0 -125 40 0 40 0 0
200 0 200 -45 0 -44 0 -48 -80 c-26 -43 -52 -78 -57 -77 -5 2 -30 37 -56 78
-45 74 -46 74 -93 77 l-47 3 0 -200z"/>
<path d="M2641 1879 c6 -12 40 -65 75 -119 l64 -98 0 -81 0 -81 40 0 40 0 0
78 0 79 75 116 c41 63 75 118 75 121 0 3 -20 6 -44 6 -44 0 -44 0 -91 -75 -25
-41 -50 -75 -53 -75 -4 0 -27 34 -52 75 l-45 75 -48 0 c-45 0 -47 -1 -36 -21z"/>
<path d="M3215 1883 c3 -10 34 -100 67 -201 l60 -183 37 3 36 3 42 119 c23 65
44 120 46 123 3 2 25 -51 49 -119 l45 -123 36 -3 35 -3 62 188 c35 103 65 194
68 201 3 8 -9 12 -40 12 l-45 0 -33 -115 c-34 -115 -45 -144 -53 -135 -3 3
-22 59 -43 125 l-39 120 -36 3 -37 3 -45 -133 -44 -133 -43 133 -43 132 -45 0
c-38 0 -43 -2 -37 -17z"/>
<path d="M3916 1813 c-55 -124 -126 -296 -126 -306 0 -4 19 -7 41 -5 39 3 43
6 59 48 l18 45 81 3 82 3 22 -51 c21 -49 22 -50 65 -50 32 0 43 4 39 13 -3 6
-41 95 -84 197 l-78 185 -40 3 -40 3 -39 -88z m100 -78 c13 -31 24 -58 24 -60
0 -3 -23 -5 -51 -5 -57 0 -55 -6 -21 77 9 24 18 43 20 43 2 0 14 -25 28 -55z"/>
<path d="M4170 1891 c0 -6 31 -58 70 -118 l70 -108 0 -82 0 -83 45 0 45 0 0
82 0 81 70 114 c39 63 70 116 70 118 0 3 -20 5 -44 5 -43 0 -43 0 -87 -72 -25
-39 -49 -73 -54 -75 -6 -1 -30 31 -53 72 l-44 75 -44 0 c-24 0 -44 -4 -44 -9z"/>
<path d="M4870 1881 c-80 -43 -124 -143 -101 -228 25 -94 98 -153 191 -153 73
0 169 55 143 81 -7 7 -26 1 -59 -16 -118 -64 -234 6 -234 140 0 59 25 106 72
136 44 27 131 23 175 -9 23 -16 33 -18 41 -10 19 19 15 26 -31 53 -55 32 -144
35 -197 6z"/>
<path d="M5660 1700 c0 -193 1 -200 20 -200 19 0 20 7 20 155 0 96 4 155 10
155 5 0 22 -17 37 -38 76 -104 217 -272 229 -272 11 0 14 37 14 200 0 192 -1
200 -20 200 -18 0 -20 -8 -22 -157 l-3 -156 -124 156 c-80 101 -131 157 -142
157 -18 0 -19 -12 -19 -200z"/>
<path d="M6148 1884 c-36 -19 -48 -43 -48 -93 0 -62 34 -89 141 -112 85 -18
112 -67 63 -116 -23 -23 -31 -25 -80 -20 -32 3 -66 14 -85 28 -27 19 -33 20
-45 7 -13 -12 -12 -17 5 -32 46 -42 144 -57 205 -32 44 18 66 52 66 99 0 53
-32 81 -121 108 -41 12 -82 29 -91 37 -25 22 -23 67 4 86 28 20 105 20 138 1
33 -19 47 -19 54 1 15 40 -147 71 -206 38z"/>
<path d="M6460 1760 c0 -97 4 -151 14 -174 21 -49 69 -79 135 -84 75 -4 119
18 149 78 20 39 22 59 22 182 0 131 -1 138 -20 138 -19 0 -20 -7 -20 -135 0
-151 -9 -184 -60 -210 -62 -32 -141 -9 -166 50 -10 24 -14 75 -14 165 0 123
-1 130 -20 130 -19 0 -20 -7 -20 -140z"/>
<path d="M6890 1700 l0 -200 130 0 130 0 0 25 0 25 -110 0 -110 0 0 175 c0
168 -1 175 -20 175 -19 0 -20 -7 -20 -200z"/>
<path d="M7154 1889 c-11 -19 9 -28 71 -31 l60 -3 3 -177 c2 -170 3 -178 22
-178 19 0 20 7 20 180 l0 180 65 0 c58 0 65 2 65 20 0 19 -7 20 -149 20 -97 0
-152 -4 -157 -11z"/>
<path d="M7550 1700 c0 -193 1 -200 20 -200 19 0 20 7 20 200 0 193 -1 200
-20 200 -19 0 -20 -7 -20 -200z"/>
<path d="M7710 1700 c0 -192 1 -200 20 -200 18 0 20 8 22 162 l3 163 128 -163
c71 -89 135 -162 143 -162 12 0 14 33 14 200 0 193 -1 200 -20 200 -19 0 -20
-7 -20 -156 0 -98 -4 -153 -10 -149 -5 3 -62 73 -126 155 -77 100 -122 150
-135 150 -18 0 -19 -10 -19 -200z"/>
<path d="M8240 1881 c-19 -10 -48 -37 -65 -60 -27 -39 -30 -50 -30 -120 0 -68
3 -83 28 -120 54 -81 166 -104 265 -55 l52 26 0 84 0 84 -80 0 c-79 0 -80 0
-80 -25 0 -24 3 -25 60 -25 l60 0 0 -45 c0 -37 -4 -47 -27 -62 -40 -26 -142
-25 -180 3 -89 65 -84 217 9 274 44 26 122 27 165 1 27 -17 33 -18 43 -6 42
51 -140 89 -220 46z"/>
<path d="M2253 1203 c-34 -7 -73 -59 -73 -97 0 -52 30 -81 106 -102 106 -28
139 -69 94 -114 -27 -27 -102 -27 -154 1 -39 20 -67 14 -51 -11 13 -21 89 -50
133 -50 80 0 124 39 124 108 0 48 -32 75 -122 102 -80 24 -110 53 -90 89 22
42 86 54 141 25 31 -16 59 -13 59 5 0 27 -112 56 -167 44z"/>
<path d="M2993 1203 c-31 -6 -73 -48 -74 -75 -4 -72 19 -99 104 -123 34 -9 72
-23 85 -31 27 -18 30 -64 4 -87 -26 -24 -97 -21 -150 4 -36 18 -46 19 -52 8
-12 -19 44 -57 97 -65 94 -14 163 27 163 98 0 53 -31 82 -117 107 -102 30
-129 69 -77 110 32 25 81 27 129 4 27 -13 38 -14 47 -5 9 9 7 15 -8 27 -36 28
-95 39 -151 28z"/>
<path d="M3660 1158 c-12 -29 -49 -110 -81 -181 -33 -70 -59 -132 -59 -137 0
-6 7 -10 15 -10 8 0 26 23 40 50 l25 50 100 0 100 0 25 -50 c17 -35 31 -50 45
-50 19 0 19 2 -4 53 -52 112 -128 283 -137 305 -16 40 -44 27 -69 -30z m83
-93 c20 -42 37 -80 37 -85 0 -6 -34 -10 -80 -10 -44 0 -80 3 -80 7 0 13 73
163 79 163 4 0 23 -34 44 -75z"/>
<path d="M4615 1088 c-32 -68 -71 -153 -86 -190 -25 -61 -26 -68 -10 -68 11 0
26 18 41 50 l23 50 103 0 103 0 22 -50 c15 -36 27 -50 41 -50 12 0 18 5 15 13
-25 59 -130 294 -147 326 -11 23 -26 41 -34 41 -7 0 -39 -55 -71 -122z m118
-35 l35 -83 -79 0 c-43 0 -79 4 -79 9 0 5 9 31 21 58 11 26 27 63 35 82 9 20
18 31 23 25 5 -5 25 -46 44 -91z"/>
<path d="M6954 1196 c-41 -18 -64 -52 -64 -94 0 -47 34 -77 121 -102 88 -26
99 -34 99 -71 0 -58 -97 -80 -174 -38 -29 15 -41 18 -50 9 -8 -8 -4 -16 14
-30 88 -68 226 -45 245 42 14 63 -25 104 -120 127 -70 17 -95 35 -95 71 0 57
79 79 152 41 32 -16 38 -16 43 -3 8 22 -11 39 -60 51 -56 14 -73 13 -111 -3z"/>
<path d="M8320 1203 c-42 -13 -64 -31 -76 -59 -27 -64 8 -114 99 -139 34 -9
72 -23 85 -31 27 -18 30 -64 4 -87 -27 -25 -108 -22 -151 4 -29 18 -36 19 -48
6 -13 -13 -8 -18 38 -41 107 -53 219 -18 219 70 0 65 -31 94 -127 114 -85 19
-113 61 -69 105 30 30 68 32 126 9 31 -13 44 -14 53 -5 29 29 -96 73 -153 54z"/>
<path d="M2520 1068 c0 -115 3 -137 20 -166 59 -96 201 -96 260 0 17 29 20 51
20 166 0 124 -1 132 -19 132 -18 0 -20 -10 -23 -141 -3 -140 -3 -141 -31 -165
-42 -36 -118 -34 -157 4 -25 25 -28 36 -33 118 -3 49 -4 109 -4 134 2 35 -2
45 -15 48 -16 3 -18 -8 -18 -130z"/>
<path d="M3230 1180 c0 -18 7 -20 60 -20 l60 0 0 -165 c0 -158 1 -165 20 -165
19 0 20 7 20 165 l0 165 60 0 c53 0 60 2 60 20 0 19 -7 20 -140 20 -133 0
-140 -1 -140 -20z"/>
<path d="M3970 1015 c0 -158 2 -185 15 -185 13 0 15 27 15 185 0 158 -2 185
-15 185 -13 0 -15 -27 -15 -185z"/>
<path d="M4120 1015 c0 -156 2 -185 15 -185 12 0 15 26 17 153 l3 152 102
-128 c56 -70 110 -139 121 -154 13 -17 25 -24 36 -20 14 6 16 29 16 187 l0
180 -25 0 -24 0 -3 -141 -3 -141 -110 141 c-65 83 -117 140 -127 141 -17 0
-18 -15 -18 -185z"/>
<path d="M4950 1015 l0 -185 78 0 c154 1 212 30 212 106 0 35 -35 84 -61 84
-6 0 0 12 15 26 37 37 35 86 -3 125 -29 28 -32 29 -135 29 l-106 0 0 -185z
m211 135 c13 -7 19 -21 19 -45 0 -50 -28 -65 -117 -65 l-73 0 0 60 0 60 76 0
c41 0 84 -5 95 -10z m17 -167 c21 -18 25 -32 23 -65 -2 -30 -54 -48 -136 -48
l-75 0 0 65 0 65 84 0 c65 0 88 -4 104 -17z"/>
<path d="M5330 1015 l0 -185 120 0 c113 0 120 1 120 20 0 19 -7 20 -100 20
l-100 0 0 165 c0 158 -1 165 -20 165 -19 0 -20 -7 -20 -185z"/>
<path d="M5650 1015 l0 -185 135 0 c128 0 135 1 135 20 0 18 -8 20 -112 22
l-113 3 -3 63 -3 62 101 0 c93 0 100 1 100 20 0 19 -7 20 -100 20 l-100 0 0
60 0 60 115 0 c108 0 115 1 115 20 0 19 -7 20 -135 20 l-135 0 0 -185z"/>
<path d="M6160 1015 c0 -177 1 -185 20 -185 17 0 19 8 22 73 l3 72 52 3 52 3
58 -75 c42 -55 64 -76 81 -76 20 0 17 7 -33 74 -30 41 -55 77 -55 80 0 4 7 6
16 6 8 0 29 13 45 29 52 53 34 147 -33 170 -17 6 -75 11 -129 11 l-99 0 0
-185z m235 120 c63 -62 0 -125 -124 -125 -48 0 -61 3 -65 18 -6 18 -5 112 1
125 2 4 40 7 84 7 72 0 82 -3 104 -25z"/>
<path d="M6550 1015 l0 -185 130 0 c123 0 130 1 130 20 0 18 -8 20 -112 22
l-113 3 0 60 0 60 100 5 c80 4 100 8 100 20 0 12 -20 16 -100 20 l-100 5 -3
58 -3 57 116 0 c108 0 115 1 115 20 0 19 -7 20 -130 20 l-130 0 0 -185z"/>
<path d="M7230 1073 c0 -146 11 -182 69 -220 68 -46 176 -21 213 48 15 28 18
57 18 166 0 107 -3 133 -14 133 -11 0 -15 -28 -18 -136 l-3 -136 -33 -29 c-59
-53 -158 -35 -181 33 -6 17 -11 84 -11 149 0 112 -1 119 -20 119 -19 0 -20 -7
-20 -127z"/>
<path d="M7640 1015 l0 -185 120 0 c113 0 120 1 120 20 0 18 -8 20 -102 22
l-103 3 -3 163 c-2 135 -5 162 -17 162 -13 0 -15 -29 -15 -185z"/>
<path d="M7882 1183 c3 -15 16 -19 66 -21 l62 -3 0 -164 c0 -158 1 -165 20
-165 19 0 20 7 20 165 l0 165 60 0 c53 0 60 2 60 20 0 19 -7 20 -146 20 -133
0 -145 -1 -142 -17z"/>
</g>
</svg>
